<?xml version="1.0" encoding="utf-8" ?>
<svg xmlns="http://www.w3.org/2000/svg" xmlns:xlink="http://www.w3.org/1999/xlink" width="512" height="513">
	<path fill="#1377FF" transform="matrix(1 0 0 1.00195 0 0.000244141)" d="M262.001 96.4028L262.282 96.3685C336.063 94.5882 403.198 160.121 415.431 230.745C418.302 247.319 418.596 264.516 415.697 281.122C414.121 290.147 409.961 307.667 403.521 314.314C396.024 322.05 381.974 322.305 374.359 314.61C365.287 305.444 371.015 292.796 372.932 282.036C374.127 275.326 374.757 269.057 374.754 262.24C374.799 257.881 375.136 252.761 374.263 248.504L371.311 231.216C363.233 198.049 340.626 168.682 311.584 151.049C282.096 133.145 243.817 128.961 215.675 152.149C211.924 155.24 208.025 159.044 203.157 160.206L202.75 160.3C189.831 163.487 177.784 150.464 179.692 137.921L179.76 137.5C181.085 128.424 188.741 122.813 195.755 117.938C214.625 104.823 239.057 96.9073 262.001 96.4028Z"/>
	<defs>
		<linearGradient id="gradient_0" gradientUnits="userSpaceOnUse" x1="478.34216" y1="263.97543" x2="39.01228" y2="245.8848">
			<stop offset="0" stop-color="#0064FF"/>
			<stop offset="1" stop-color="#6EC6FF"/>
		</linearGradient>
	</defs>
	<path fill="url(#gradient_0)" transform="matrix(1 0 0 1.00195 0 0.000244141)" d="M224.067 18.9203C246.158 14.275 267.603 12.9572 290.09 15.9872C379.16 27.989 455.682 96.2359 474.248 184.875C476.769 196.913 478.508 209.41 479.142 221.696L478.871 256.115C473.122 339.128 427.206 407.328 357.5 450.915C318.175 475.505 262.264 494.757 216.452 494.298C216.025 494.432 215.158 494.317 214.668 494.318L210.128 494.315C152.084 494.107 96.0096 468.725 56.3317 426.613C50.2135 420.12 43.8873 413.635 39.625 405.699C15.0146 359.877 69.3008 327.488 109 343.017C117.714 346.426 125.773 351.471 134.321 355.277C143.409 359.323 152.725 362.201 162.154 365.272C174.558 368.202 186.755 371.02 199.5 372.099C224.075 374.181 254.595 369.103 275.504 356.213C293.642 345.03 305.189 323.65 309.909 303.361C313.343 288.596 311.685 272.509 307.717 258.037C304.565 246.543 298.067 235.42 305.654 224.154L305.883 223.808C307.018 222.136 308.603 220.685 310.267 219.554L310.654 219.287C312.167 218.262 313.739 217.686 315.5 217.233L315.963 217.11C325.925 214.632 333.154 218.803 338.25 226.951C354.214 252.477 356.638 286.714 349.72 315.634C336.968 368.949 306.465 395.846 254.725 407.638C216.276 416.4 169.062 413.476 132.338 397.658C123.771 394.898 115.347 390.137 107.479 385.814C102.779 383.231 96.9567 378.369 91.25 380.197L90.9259 380.299C76.9075 384.848 88.0915 396.795 94.5569 402.069C125.642 427.424 164.512 441.385 204.509 443.339L226.827 443.058C287.443 438.51 348.789 409.651 386.74 361.5C393.97 352.327 400.802 342.997 406.536 332.792C434.406 283.193 437.264 216.006 414.371 164.023C400.522 132.579 376.114 106.131 346.21 89.3998C304.432 66.0248 265.73 62.6169 220.295 75.3622C219.775 75.8818 217.317 76.4082 216.499 76.6864L206.883 80.2781C166.914 96.5199 143.24 126.444 134.647 167.935C131.853 181.426 130.67 207.781 144.861 215.943C148.184 217.855 152.862 218.507 156.582 217.417L157 217.287C161.744 215.843 165.289 211.005 168.201 207.22C178.391 193.974 200.031 180.04 215.867 192.448C234.923 207.379 226.503 240.442 213.988 257C202.822 271.774 183.478 278.349 165.518 278.331C122.673 278.288 96.4631 241.914 88.1634 203.125C69.0336 113.722 140.71 36.806 224.067 18.9203Z"/>
</svg>
