<?xml version="1.0" encoding="utf-8" ?>
<svg xmlns="http://www.w3.org/2000/svg" xmlns:xlink="http://www.w3.org/1999/xlink" width="512" height="513">
	<defs>
		<linearGradient id="gradient_0" gradientUnits="userSpaceOnUse" x1="325.25565" y1="481.59558" x2="186.28629" y2="26.536818">
			<stop offset="0" stop-color="#5EB7FF"/>
			<stop offset="1" stop-color="#0064FF"/>
		</linearGradient>
	</defs>
	<path fill="url(#gradient_0)" transform="matrix(1 0 0 1.00195 0 0.000244141)" d="M122.427 451.212C113.526 446.407 93.8077 428.662 86.8348 421.659C38.5837 373.203 13.1064 302.665 19.237 234.624C19.4013 232.801 19.3047 230.888 19.6099 229.086L22.3677 209.875C22.5365 209.065 22.9993 205.679 23.2393 205.165L23.4291 204.5C23.6693 204.197 23.6179 204.335 23.6919 203.963L24 202.375C25.2915 197.621 25.3983 192.177 27.3938 187.664L27.4988 187.438C27.7824 185.997 27.1819 188.281 27.5823 186.812L28 185C28.52 183.92 28.6691 182.694 29.1283 181.539L30.6225 177.375C30.7607 176.083 31.5981 175.08 31.8341 173.89L32.7488 171.499C32.9598 170.988 33.1928 170.399 33.3725 169.875L34.1225 168.375C34.1225 167.585 34.8824 165.784 35.3113 165L35.6225 164.375C36.1819 163.533 36.5755 162.085 37.0606 161.117L37.2488 160.749C37.5527 160.026 38.2457 159.127 38.3725 158.375L38.375 158C38.4915 157.844 38.6742 157.616 38.7488 157.438L38.875 157C39.0941 156.518 39.4304 155.727 39.75 155.25L39.9988 154.938C40.2237 154.488 40.3058 153.967 40.5613 153.5L41.4988 151.688C41.5031 150.61 47.1147 139.86 48.25 138L55.5 126C55.8693 125.471 56.1393 124.906 56.4961 124.371L58.75 121C58.9956 120.58 59.1515 120.223 59.4648 119.84L68.0625 107.812C70.3493 103.935 74.3721 101.086 76.8125 97.3125C78.0814 95.3506 82.7284 90.8615 84.433 89.1578C86.5327 87.0592 95.738 77.7934 97.9375 76.4375C101.247 74.3977 103.622 70.9021 106.973 68.7695C108.535 67.7751 110.226 66.4578 111.664 65.2812L114.926 62.7695C116.212 61.7172 117.719 60.6533 119.125 59.75L125.25 55.75C125.776 55.3762 126.343 55.111 126.879 54.7539L128 54C129.578 52.8978 131.346 51.9891 133 51L160.25 36.875C161.736 36.3098 163.15 35.6075 164.625 35L165.25 34.75C165.784 34.502 166.321 34.3371 166.848 34.0977L170 32.75C170.534 32.502 171.071 32.3371 171.598 32.0977L173 31.5C173.858 31.1014 174.838 30.6162 175.75 30.375L176.25 30.25C177.098 29.8619 177.986 29.5386 178.875 29.2422L190.438 25.4375C191.131 25.1851 190.616 25.2987 191.172 25.1875L192.188 24.9375C195.646 23.6558 199.799 22.6589 203.426 21.9336L205.625 21.5C206.302 21.267 207.252 21.0683 207.926 20.9336L210.125 20.5C215.108 18.7862 220.802 19.1863 225.875 17.75C227.387 17.322 228.992 17.4941 230.486 17.1953L231.625 17.25C232.128 17.0346 237.753 16.3579 238.488 16.5984L238.75 16.7046C239.862 16.166 276.162 15.438 278.697 16.861C279.294 17.1964 280.758 17 281.5 17C283.166 18.1104 287.758 18.1225 290 18.1225L290.375 18.3725C291.478 18.352 292.531 18.504 293.625 18.6225L295 18.8113C295.639 19.3418 300.089 19.8725 301.125 19.8725L301.375 20.1225C302.441 20.0915 303.42 20.573 304.406 20.573L306.125 21.1225C307.013 21.1068 308.08 21.1959 308.945 21.3946L309.283 21.4774C312.359 21.7676 315.486 22.6313 318.486 23.403C355.117 32.8271 389.824 53.7277 417.515 79.4592C475.924 133.736 504.681 217.768 490.488 296.375C487.833 311.08 483.324 325.507 477.894 339.409L472.391 352.402C451.101 398.856 415.582 438.555 370.45 462.917C365.288 465.704 359.897 468.041 354.531 470.397L334.869 478.525C321.079 483.657 307.041 486.89 292.526 489.098C234.74 497.892 176.102 486.062 126.738 454.167C125.475 453.35 123.406 452.295 122.427 451.212ZM249.186 108.356C247.291 108.422 245.222 108.329 243.358 108.634L234.25 109.806C227.842 110.872 221.619 112.054 215.381 113.924C160.504 130.372 115.837 183.801 110.568 241.115C109.595 251.697 110.181 263.231 111.676 273.692C121.654 343.472 192.293 403.836 263.061 398.544C360.47 392.108 428.684 291.676 390.808 199.956C381.339 177.025 365.465 157.539 346.867 141.345C318.236 116.413 285.972 108.274 249.186 108.356Z"/>
	<defs>
		<linearGradient id="gradient_1" gradientUnits="userSpaceOnUse" x1="307.53201" y1="347.35107" x2="204.37396" y2="160.68117">
			<stop offset="0" stop-color="#5EB7FF"/>
			<stop offset="1" stop-color="#0064FF"/>
		</linearGradient>
	</defs>
	<path fill="url(#gradient_1)" transform="matrix(1 0 0 1.00195 0 0.000244141)" d="M253.072 135.828C265.924 134.296 280.014 143.972 280.737 157.408L281.396 228.477C287.13 228.88 293.119 228.53 298.877 228.531L333.993 228.537C341.486 228.54 349.462 227.913 356.794 229.609C373.046 233.367 380.655 254.937 370.32 268.856L370.024 269.25C363.403 278.207 355.951 279.796 345.794 279.804L280.881 279.782L280.836 343.355C280.827 346.726 280.945 350.088 280.344 353.419C278.455 363.89 269.174 371.897 258.651 372.868C245.741 373.555 234.244 366.606 231.611 353.472C230.873 349.792 231.189 345.756 231.186 342.01L230.724 279.835L166.999 279.809C164.377 279.804 161.51 280.033 158.937 279.54C130.193 274.035 130.741 235.619 154 229.812C159.35 228.476 164.61 228.589 170.077 228.569L230.748 228.614L230.717 165.924C230.703 149.146 235.099 138.904 253.072 135.828Z"/>
</svg>
